<svg width="785" height="520" viewBox="0 0 785 520" fill="none" xmlns="http://www.w3.org/2000/svg">
<path d="M293.75 70.7603C293.296 69.2473 292.453 67.7357 292.447 66.2208C292.362 45.5627 292.383 24.9042 292.423 4.24591C292.425 2.98846 292.802 1.73169 293.081 0C456.847 0 620.266 0 784.32 0C784.32 172.91 784.32 345.377 784.32 517.897C777.728 519.841 306.557 520.503 292.421 518.374C292.421 499.327 292.421 480.099 293.017 459.935C293.612 458.998 294.562 458.897 295.458 458.823C333.432 461.154 370.246 458.573 406.834 452.54C462.129 443.424 516.18 429.352 568.97 410.592C611.392 395.516 652.722 377.917 691.054 354.019C702.572 346.837 713.487 338.687 724.798 330.898C716.017 321.081 680.777 299.802 636.047 276.91C633.633 278.865 631.028 280.887 628.519 283.021C600.336 306.996 571.381 329.95 540.474 350.379C467.307 398.739 388.079 425.692 299.264 419.14C297.019 418.974 294.712 419.631 292.361 419.328C292.247 418.365 292.206 417.98 292.257 416.63C292.498 402.828 292.648 389.992 293.282 377.113C294.515 376.524 295.265 375.977 296.855 375.365C320.622 378.563 343.423 378.333 366.235 373.846C400.004 367.203 430.856 353.455 460.234 336.051C505.569 309.194 545.089 275.144 581.474 237.289C588.102 230.393 594.335 223.117 601.115 215.614C597.823 211.68 595.325 208.137 592.282 205.152C576.604 189.772 561.635 173.525 544.863 159.432C485.636 109.664 418.746 76.5881 340.516 70.3715C325.035 69.1414 309.344 70.5621 293.75 70.7603Z" fill="#010101"/>
<path d="M294.562 458.897C294.562 458.897 293.612 458.998 293.135 458.995C261.772 455.464 231.708 448.662 202.932 436.64C158.595 418.118 120.579 390.542 87.8395 355.642C51.7272 317.147 23.6769 273.35 3.34015 224.631C2.19794 221.894 1.18866 219.103 0 216.033C1.35632 214.451 2.47986 212.798 3.9245 211.504C61.4698 159.961 125.094 118.167 197.88 91.2454C228.276 80.0025 259.558 72.368 292.602 71.1143C292.923 83.593 292.626 94.9059 292.275 106.809C292.209 107.791 292.199 108.183 291.292 108.659C260.614 110.854 231.972 117.859 204.419 129.216C158.339 148.209 119.223 176.804 87.2459 215.075C83.4279 219.644 80.1664 223.643 83.0885 230.981C103.599 282.487 132.378 328.234 174.73 364.624C208.623 393.746 247.649 411.846 292.165 417.594C292.206 417.98 292.247 418.365 292.58 420.183C292.9 429.864 292.761 438.119 293.027 446.36C293.163 450.551 294.027 454.719 294.562 458.897Z" fill="#010101"/>
<path d="M293.282 377.113C290.875 376.043 289.077 374.35 287.009 373.904C229.856 361.558 189.798 326.86 160.972 277.552C152.072 262.328 144.658 246.397 139.658 228.32C146.237 222.496 152.674 216.292 159.625 210.729C196.508 181.213 238.229 162.561 285.029 155.52C286.998 155.224 289.006 155.192 292.011 155.05C293.026 155.063 293.319 154.991 293.31 155.938C293.237 169.674 293.174 182.464 292.939 195.199C292.768 195.146 292.429 195.027 291.502 195.189C254.32 193.783 227.656 211.926 203.773 236.261C215.088 269.086 231.696 297.017 258.214 318.233C268.313 326.313 279.039 333.592 292.398 336.467C293.062 337.338 293.457 337.953 293.852 338.568C294.065 350.531 294.278 362.494 295.252 374.943C295.265 375.977 294.515 376.524 293.282 377.113Z" fill="#010101"/>
<path d="M292.429 195.027C292.429 195.027 292.768 195.146 293.801 195.282C298.771 196.083 302.732 196.631 306.641 197.435C325.28 201.269 340.999 210.136 352.396 225.537C359.512 235.153 365.826 245.368 372.377 255.395C375.968 260.893 379.302 266.559 383.239 272.938C405.465 254.211 427.013 236.054 449.669 216.965C442.661 210.064 436.642 203.499 429.971 197.683C402.145 173.419 370.352 157.545 333.145 154.648C319.959 153.622 306.599 154.812 293.319 154.991C293.319 154.991 293.026 155.063 292.912 155.153C292.648 140.337 292.498 125.431 292.268 109.55C292.199 108.183 292.209 107.791 292.274 106.808C294.587 106.578 296.868 107.358 299.099 107.236C360.568 103.858 413.974 124.807 462.2 161.28C480.297 174.968 496.823 190.387 511.633 207.605C514.211 210.602 516.602 213.761 519.189 216.982C518.42 218.543 518.036 219.826 517.268 220.81C489.681 256.188 458.573 287.918 420.994 312.813C403.167 324.622 384.235 334.13 363.386 339.624C340.626 345.622 318.04 345.455 294.658 338.751C293.457 337.953 293.062 337.338 292.498 335.463C292.362 287.811 292.396 241.419 292.429 195.027Z" fill="#010101"/>
</svg>
