<?xml version="1.0" encoding="UTF-8"?>
<svg xmlns="http://www.w3.org/2000/svg" version="1.1" width="1024" height="1024" viewBox="0 0 500 500"><rect x="0" y="0" width="500" height="500" fill="#ffffff"/><g transform="scale(18.519)"><g transform="translate(1,1)"><g><g transform="translate(3.5,3.5)"><path fill-rule="evenodd" d="M-3.5 0C-3.5 3.5 -3.5 3.5 0 3.5C3.5 3.5 3.5 3.5 3.5 0C3.5 -3.5 3.5 -3.5 0 -3.5C-3.5 -3.5 -3.5 -3.5 -3.5 0ZM-2.5 0L-2.5 -1.5A1 1 0 0 1 -1.5 -2.5L1.5 -2.5A1 1 0 0 1 2.5 -1.5L2.5 1.5A1 1 0 0 1 1.5 2.5L-1.5 2.5A1 1 0 0 1 -2.5 1.5Z" fill="#000000"/><path fill-rule="evenodd" d="M-1.5 0C-1.5 1.5 -1.5 1.5 0 1.5C1.5 1.5 1.5 1.5 1.5 0C1.5 -1.5 1.5 -1.5 0 -1.5C-1.5 -1.5 -1.5 -1.5 -1.5 0Z" fill="#000000"/></g></g><g><g transform="translate(21.5,3.5)"><g transform="rotate(90)"><path fill-rule="evenodd" d="M-3.5 0C-3.5 3.5 -3.5 3.5 0 3.5C3.5 3.5 3.5 3.5 3.5 0C3.5 -3.5 3.5 -3.5 0 -3.5C-3.5 -3.5 -3.5 -3.5 -3.5 0ZM-2.5 0L-2.5 -1.5A1 1 0 0 1 -1.5 -2.5L1.5 -2.5A1 1 0 0 1 2.5 -1.5L2.5 1.5A1 1 0 0 1 1.5 2.5L-1.5 2.5A1 1 0 0 1 -2.5 1.5Z" fill="#000000"/><path fill-rule="evenodd" d="M-1.5 0C-1.5 1.5 -1.5 1.5 0 1.5C1.5 1.5 1.5 1.5 1.5 0C1.5 -1.5 1.5 -1.5 0 -1.5C-1.5 -1.5 -1.5 -1.5 -1.5 0Z" fill="#000000"/></g></g></g><g><g transform="translate(3.5,21.5)"><g transform="rotate(-90)"><path fill-rule="evenodd" d="M-3.5 0C-3.5 3.5 -3.5 3.5 0 3.5C3.5 3.5 3.5 3.5 3.5 0C3.5 -3.5 3.5 -3.5 0 -3.5C-3.5 -3.5 -3.5 -3.5 -3.5 0ZM-2.5 0L-2.5 -1.5A1 1 0 0 1 -1.5 -2.5L1.5 -2.5A1 1 0 0 1 2.5 -1.5L2.5 1.5A1 1 0 0 1 1.5 2.5L-1.5 2.5A1 1 0 0 1 -2.5 1.5Z" fill="#000000"/><path fill-rule="evenodd" d="M-1.5 0C-1.5 1.5 -1.5 1.5 0 1.5C1.5 1.5 1.5 1.5 1.5 0C1.5 -1.5 1.5 -1.5 0 -1.5C-1.5 -1.5 -1.5 -1.5 -1.5 0Z" fill="#000000"/></g></g></g><path fill-rule="evenodd" d="M10.95 0.5A0.45 0.45 0 0 1 10.5 0.95A0.45 0.45 0 0 1 10.05 0.5A0.45 0.45 0 0 1 10.5 0.05A0.45 0.45 0 0 1 10.95 0.5ZM11.95 0.5A0.45 0.45 0 0 1 11.5 0.95A0.45 0.45 0 0 1 11.05 0.5A0.45 0.45 0 0 1 11.5 0.05A0.45 0.45 0 0 1 11.95 0.5ZM15.95 0.5A0.45 0.45 0 0 1 15.5 0.95A0.45 0.45 0 0 1 15.05 0.5A0.45 0.45 0 0 1 15.5 0.05A0.45 0.45 0 0 1 15.95 0.5ZM8.95 1.5A0.45 0.45 0 0 1 8.5 1.95A0.45 0.45 0 0 1 8.05 1.5A0.45 0.45 0 0 1 8.5 1.05A0.45 0.45 0 0 1 8.95 1.5ZM9.95 1.5A0.45 0.45 0 0 1 9.5 1.95A0.45 0.45 0 0 1 9.05 1.5A0.45 0.45 0 0 1 9.5 1.05A0.45 0.45 0 0 1 9.95 1.5ZM11.95 1.5A0.45 0.45 0 0 1 11.5 1.95A0.45 0.45 0 0 1 11.05 1.5A0.45 0.45 0 0 1 11.5 1.05A0.45 0.45 0 0 1 11.95 1.5ZM14.95 1.5A0.45 0.45 0 0 1 14.5 1.95A0.45 0.45 0 0 1 14.05 1.5A0.45 0.45 0 0 1 14.5 1.05A0.45 0.45 0 0 1 14.95 1.5ZM15.95 1.5A0.45 0.45 0 0 1 15.5 1.95A0.45 0.45 0 0 1 15.05 1.5A0.45 0.45 0 0 1 15.5 1.05A0.45 0.45 0 0 1 15.95 1.5ZM9.95 2.5A0.45 0.45 0 0 1 9.5 2.95A0.45 0.45 0 0 1 9.05 2.5A0.45 0.45 0 0 1 9.5 2.05A0.45 0.45 0 0 1 9.95 2.5ZM11.95 2.5A0.45 0.45 0 0 1 11.5 2.95A0.45 0.45 0 0 1 11.05 2.5A0.45 0.45 0 0 1 11.5 2.05A0.45 0.45 0 0 1 11.95 2.5ZM14.95 2.5A0.45 0.45 0 0 1 14.5 2.95A0.45 0.45 0 0 1 14.05 2.5A0.45 0.45 0 0 1 14.5 2.05A0.45 0.45 0 0 1 14.95 2.5ZM15.95 2.5A0.45 0.45 0 0 1 15.5 2.95A0.45 0.45 0 0 1 15.05 2.5A0.45 0.45 0 0 1 15.5 2.05A0.45 0.45 0 0 1 15.95 2.5ZM10.95 3.5A0.45 0.45 0 0 1 10.5 3.95A0.45 0.45 0 0 1 10.05 3.5A0.45 0.45 0 0 1 10.5 3.05A0.45 0.45 0 0 1 10.95 3.5ZM11.95 3.5A0.45 0.45 0 0 1 11.5 3.95A0.45 0.45 0 0 1 11.05 3.5A0.45 0.45 0 0 1 11.5 3.05A0.45 0.45 0 0 1 11.95 3.5ZM12.95 3.5A0.45 0.45 0 0 1 12.5 3.95A0.45 0.45 0 0 1 12.05 3.5A0.45 0.45 0 0 1 12.5 3.05A0.45 0.45 0 0 1 12.95 3.5ZM13.95 3.5A0.45 0.45 0 0 1 13.5 3.95A0.45 0.45 0 0 1 13.05 3.5A0.45 0.45 0 0 1 13.5 3.05A0.45 0.45 0 0 1 13.95 3.5ZM14.95 3.5A0.45 0.45 0 0 1 14.5 3.95A0.45 0.45 0 0 1 14.05 3.5A0.45 0.45 0 0 1 14.5 3.05A0.45 0.45 0 0 1 14.95 3.5ZM15.95 3.5A0.45 0.45 0 0 1 15.5 3.95A0.45 0.45 0 0 1 15.05 3.5A0.45 0.45 0 0 1 15.5 3.05A0.45 0.45 0 0 1 15.95 3.5ZM16.95 3.5A0.45 0.45 0 0 1 16.5 3.95A0.45 0.45 0 0 1 16.05 3.5A0.45 0.45 0 0 1 16.5 3.05A0.45 0.45 0 0 1 16.95 3.5ZM8.95 4.5A0.45 0.45 0 0 1 8.5 4.95A0.45 0.45 0 0 1 8.05 4.5A0.45 0.45 0 0 1 8.5 4.05A0.45 0.45 0 0 1 8.95 4.5ZM9.95 4.5A0.45 0.45 0 0 1 9.5 4.95A0.45 0.45 0 0 1 9.05 4.5A0.45 0.45 0 0 1 9.5 4.05A0.45 0.45 0 0 1 9.95 4.5ZM11.95 4.5A0.45 0.45 0 0 1 11.5 4.95A0.45 0.45 0 0 1 11.05 4.5A0.45 0.45 0 0 1 11.5 4.05A0.45 0.45 0 0 1 11.95 4.5ZM16.95 4.5A0.45 0.45 0 0 1 16.5 4.95A0.45 0.45 0 0 1 16.05 4.5A0.45 0.45 0 0 1 16.5 4.05A0.45 0.45 0 0 1 16.95 4.5ZM9.95 5.5A0.45 0.45 0 0 1 9.5 5.95A0.45 0.45 0 0 1 9.05 5.5A0.45 0.45 0 0 1 9.5 5.05A0.45 0.45 0 0 1 9.95 5.5ZM11.95 5.5A0.45 0.45 0 0 1 11.5 5.95A0.45 0.45 0 0 1 11.05 5.5A0.45 0.45 0 0 1 11.5 5.05A0.45 0.45 0 0 1 11.95 5.5ZM15.95 5.5A0.45 0.45 0 0 1 15.5 5.95A0.45 0.45 0 0 1 15.05 5.5A0.45 0.45 0 0 1 15.5 5.05A0.45 0.45 0 0 1 15.95 5.5ZM8.95 6.5A0.45 0.45 0 0 1 8.5 6.95A0.45 0.45 0 0 1 8.05 6.5A0.45 0.45 0 0 1 8.5 6.05A0.45 0.45 0 0 1 8.95 6.5ZM10.95 6.5A0.45 0.45 0 0 1 10.5 6.95A0.45 0.45 0 0 1 10.05 6.5A0.45 0.45 0 0 1 10.5 6.05A0.45 0.45 0 0 1 10.95 6.5ZM12.95 6.5A0.45 0.45 0 0 1 12.5 6.95A0.45 0.45 0 0 1 12.05 6.5A0.45 0.45 0 0 1 12.5 6.05A0.45 0.45 0 0 1 12.95 6.5ZM14.95 6.5A0.45 0.45 0 0 1 14.5 6.95A0.45 0.45 0 0 1 14.05 6.5A0.45 0.45 0 0 1 14.5 6.05A0.45 0.45 0 0 1 14.95 6.5ZM16.95 6.5A0.45 0.45 0 0 1 16.5 6.95A0.45 0.45 0 0 1 16.05 6.5A0.45 0.45 0 0 1 16.5 6.05A0.45 0.45 0 0 1 16.95 6.5ZM10.95 7.5A0.45 0.45 0 0 1 10.5 7.95A0.45 0.45 0 0 1 10.05 7.5A0.45 0.45 0 0 1 10.5 7.05A0.45 0.45 0 0 1 10.95 7.5ZM11.95 7.5A0.45 0.45 0 0 1 11.5 7.95A0.45 0.45 0 0 1 11.05 7.5A0.45 0.45 0 0 1 11.5 7.05A0.45 0.45 0 0 1 11.95 7.5ZM16.95 7.5A0.45 0.45 0 0 1 16.5 7.95A0.45 0.45 0 0 1 16.05 7.5A0.45 0.45 0 0 1 16.5 7.05A0.45 0.45 0 0 1 16.95 7.5ZM0.95 8.5A0.45 0.45 0 0 1 0.5 8.95A0.45 0.45 0 0 1 0.05 8.5A0.45 0.45 0 0 1 0.5 8.05A0.45 0.45 0 0 1 0.95 8.5ZM2.95 8.5A0.45 0.45 0 0 1 2.5 8.95A0.45 0.45 0 0 1 2.05 8.5A0.45 0.45 0 0 1 2.5 8.05A0.45 0.45 0 0 1 2.95 8.5ZM4.95 8.5A0.45 0.45 0 0 1 4.5 8.95A0.45 0.45 0 0 1 4.05 8.5A0.45 0.45 0 0 1 4.5 8.05A0.45 0.45 0 0 1 4.95 8.5ZM6.95 8.5A0.45 0.45 0 0 1 6.5 8.95A0.45 0.45 0 0 1 6.05 8.5A0.45 0.45 0 0 1 6.5 8.05A0.45 0.45 0 0 1 6.95 8.5ZM9.95 8.5A0.45 0.45 0 0 1 9.5 8.95A0.45 0.45 0 0 1 9.05 8.5A0.45 0.45 0 0 1 9.5 8.05A0.45 0.45 0 0 1 9.95 8.5ZM10.95 8.5A0.45 0.45 0 0 1 10.5 8.95A0.45 0.45 0 0 1 10.05 8.5A0.45 0.45 0 0 1 10.5 8.05A0.45 0.45 0 0 1 10.95 8.5ZM12.95 8.5A0.45 0.45 0 0 1 12.5 8.95A0.45 0.45 0 0 1 12.05 8.5A0.45 0.45 0 0 1 12.5 8.05A0.45 0.45 0 0 1 12.95 8.5ZM13.95 8.5A0.45 0.45 0 0 1 13.5 8.95A0.45 0.45 0 0 1 13.05 8.5A0.45 0.45 0 0 1 13.5 8.05A0.45 0.45 0 0 1 13.95 8.5ZM16.95 8.5A0.45 0.45 0 0 1 16.5 8.95A0.45 0.45 0 0 1 16.05 8.5A0.45 0.45 0 0 1 16.5 8.05A0.45 0.45 0 0 1 16.95 8.5ZM20.95 8.5A0.45 0.45 0 0 1 20.5 8.95A0.45 0.45 0 0 1 20.05 8.5A0.45 0.45 0 0 1 20.5 8.05A0.45 0.45 0 0 1 20.95 8.5ZM23.95 8.5A0.45 0.45 0 0 1 23.5 8.95A0.45 0.45 0 0 1 23.05 8.5A0.45 0.45 0 0 1 23.5 8.05A0.45 0.45 0 0 1 23.95 8.5ZM0.95 9.5A0.45 0.45 0 0 1 0.5 9.95A0.45 0.45 0 0 1 0.05 9.5A0.45 0.45 0 0 1 0.5 9.05A0.45 0.45 0 0 1 0.95 9.5ZM1.95 9.5A0.45 0.45 0 0 1 1.5 9.95A0.45 0.45 0 0 1 1.05 9.5A0.45 0.45 0 0 1 1.5 9.05A0.45 0.45 0 0 1 1.95 9.5ZM3.95 9.5A0.45 0.45 0 0 1 3.5 9.95A0.45 0.45 0 0 1 3.05 9.5A0.45 0.45 0 0 1 3.5 9.05A0.45 0.45 0 0 1 3.95 9.5ZM4.95 9.5A0.45 0.45 0 0 1 4.5 9.95A0.45 0.45 0 0 1 4.05 9.5A0.45 0.45 0 0 1 4.5 9.05A0.45 0.45 0 0 1 4.95 9.5ZM5.95 9.5A0.45 0.45 0 0 1 5.5 9.95A0.45 0.45 0 0 1 5.05 9.5A0.45 0.45 0 0 1 5.5 9.05A0.45 0.45 0 0 1 5.95 9.5ZM7.95 9.5A0.45 0.45 0 0 1 7.5 9.95A0.45 0.45 0 0 1 7.05 9.5A0.45 0.45 0 0 1 7.5 9.05A0.45 0.45 0 0 1 7.95 9.5ZM10.95 9.5A0.45 0.45 0 0 1 10.5 9.95A0.45 0.45 0 0 1 10.05 9.5A0.45 0.45 0 0 1 10.5 9.05A0.45 0.45 0 0 1 10.95 9.5ZM13.95 9.5A0.45 0.45 0 0 1 13.5 9.95A0.45 0.45 0 0 1 13.05 9.5A0.45 0.45 0 0 1 13.5 9.05A0.45 0.45 0 0 1 13.95 9.5ZM14.95 9.5A0.45 0.45 0 0 1 14.5 9.95A0.45 0.45 0 0 1 14.05 9.5A0.45 0.45 0 0 1 14.5 9.05A0.45 0.45 0 0 1 14.95 9.5ZM15.95 9.5A0.45 0.45 0 0 1 15.5 9.95A0.45 0.45 0 0 1 15.05 9.5A0.45 0.45 0 0 1 15.5 9.05A0.45 0.45 0 0 1 15.95 9.5ZM18.95 9.5A0.45 0.45 0 0 1 18.5 9.95A0.45 0.45 0 0 1 18.05 9.5A0.45 0.45 0 0 1 18.5 9.05A0.45 0.45 0 0 1 18.95 9.5ZM20.95 9.5A0.45 0.45 0 0 1 20.5 9.95A0.45 0.45 0 0 1 20.05 9.5A0.45 0.45 0 0 1 20.5 9.05A0.45 0.45 0 0 1 20.95 9.5ZM23.95 9.5A0.45 0.45 0 0 1 23.5 9.95A0.45 0.45 0 0 1 23.05 9.5A0.45 0.45 0 0 1 23.5 9.05A0.45 0.45 0 0 1 23.95 9.5ZM0.95 10.5A0.45 0.45 0 0 1 0.5 10.95A0.45 0.45 0 0 1 0.05 10.5A0.45 0.45 0 0 1 0.5 10.05A0.45 0.45 0 0 1 0.95 10.5ZM2.95 10.5A0.45 0.45 0 0 1 2.5 10.95A0.45 0.45 0 0 1 2.05 10.5A0.45 0.45 0 0 1 2.5 10.05A0.45 0.45 0 0 1 2.95 10.5ZM4.95 10.5A0.45 0.45 0 0 1 4.5 10.95A0.45 0.45 0 0 1 4.05 10.5A0.45 0.45 0 0 1 4.5 10.05A0.45 0.45 0 0 1 4.95 10.5ZM6.95 10.5A0.45 0.45 0 0 1 6.5 10.95A0.45 0.45 0 0 1 6.05 10.5A0.45 0.45 0 0 1 6.5 10.05A0.45 0.45 0 0 1 6.95 10.5ZM9.95 10.5A0.45 0.45 0 0 1 9.5 10.95A0.45 0.45 0 0 1 9.05 10.5A0.45 0.45 0 0 1 9.5 10.05A0.45 0.45 0 0 1 9.95 10.5ZM10.95 10.5A0.45 0.45 0 0 1 10.5 10.95A0.45 0.45 0 0 1 10.05 10.5A0.45 0.45 0 0 1 10.5 10.05A0.45 0.45 0 0 1 10.95 10.5ZM11.95 10.5A0.45 0.45 0 0 1 11.5 10.95A0.45 0.45 0 0 1 11.05 10.5A0.45 0.45 0 0 1 11.5 10.05A0.45 0.45 0 0 1 11.95 10.5ZM17.95 10.5A0.45 0.45 0 0 1 17.5 10.95A0.45 0.45 0 0 1 17.05 10.5A0.45 0.45 0 0 1 17.5 10.05A0.45 0.45 0 0 1 17.95 10.5ZM18.95 10.5A0.45 0.45 0 0 1 18.5 10.95A0.45 0.45 0 0 1 18.05 10.5A0.45 0.45 0 0 1 18.5 10.05A0.45 0.45 0 0 1 18.95 10.5ZM21.95 10.5A0.45 0.45 0 0 1 21.5 10.95A0.45 0.45 0 0 1 21.05 10.5A0.45 0.45 0 0 1 21.5 10.05A0.45 0.45 0 0 1 21.95 10.5ZM0.95 11.5A0.45 0.45 0 0 1 0.5 11.95A0.45 0.45 0 0 1 0.05 11.5A0.45 0.45 0 0 1 0.5 11.05A0.45 0.45 0 0 1 0.95 11.5ZM1.95 11.5A0.45 0.45 0 0 1 1.5 11.95A0.45 0.45 0 0 1 1.05 11.5A0.45 0.45 0 0 1 1.5 11.05A0.45 0.45 0 0 1 1.95 11.5ZM3.95 11.5A0.45 0.45 0 0 1 3.5 11.95A0.45 0.45 0 0 1 3.05 11.5A0.45 0.45 0 0 1 3.5 11.05A0.45 0.45 0 0 1 3.95 11.5ZM5.95 11.5A0.45 0.45 0 0 1 5.5 11.95A0.45 0.45 0 0 1 5.05 11.5A0.45 0.45 0 0 1 5.5 11.05A0.45 0.45 0 0 1 5.95 11.5ZM8.95 11.5A0.45 0.45 0 0 1 8.5 11.95A0.45 0.45 0 0 1 8.05 11.5A0.45 0.45 0 0 1 8.5 11.05A0.45 0.45 0 0 1 8.95 11.5ZM10.95 11.5A0.45 0.45 0 0 1 10.5 11.95A0.45 0.45 0 0 1 10.05 11.5A0.45 0.45 0 0 1 10.5 11.05A0.45 0.45 0 0 1 10.95 11.5ZM12.95 11.5A0.45 0.45 0 0 1 12.5 11.95A0.45 0.45 0 0 1 12.05 11.5A0.45 0.45 0 0 1 12.5 11.05A0.45 0.45 0 0 1 12.95 11.5ZM13.95 11.5A0.45 0.45 0 0 1 13.5 11.95A0.45 0.45 0 0 1 13.05 11.5A0.45 0.45 0 0 1 13.5 11.05A0.45 0.45 0 0 1 13.95 11.5ZM14.95 11.5A0.45 0.45 0 0 1 14.5 11.95A0.45 0.45 0 0 1 14.05 11.5A0.45 0.45 0 0 1 14.5 11.05A0.45 0.45 0 0 1 14.95 11.5ZM16.95 11.5A0.45 0.45 0 0 1 16.5 11.95A0.45 0.45 0 0 1 16.05 11.5A0.45 0.45 0 0 1 16.5 11.05A0.45 0.45 0 0 1 16.95 11.5ZM18.95 11.5A0.45 0.45 0 0 1 18.5 11.95A0.45 0.45 0 0 1 18.05 11.5A0.45 0.45 0 0 1 18.5 11.05A0.45 0.45 0 0 1 18.95 11.5ZM19.95 11.5A0.45 0.45 0 0 1 19.5 11.95A0.45 0.45 0 0 1 19.05 11.5A0.45 0.45 0 0 1 19.5 11.05A0.45 0.45 0 0 1 19.95 11.5ZM23.95 11.5A0.45 0.45 0 0 1 23.5 11.95A0.45 0.45 0 0 1 23.05 11.5A0.45 0.45 0 0 1 23.5 11.05A0.45 0.45 0 0 1 23.95 11.5ZM24.95 11.5A0.45 0.45 0 0 1 24.5 11.95A0.45 0.45 0 0 1 24.05 11.5A0.45 0.45 0 0 1 24.5 11.05A0.45 0.45 0 0 1 24.95 11.5ZM0.95 12.5A0.45 0.45 0 0 1 0.5 12.95A0.45 0.45 0 0 1 0.05 12.5A0.45 0.45 0 0 1 0.5 12.05A0.45 0.45 0 0 1 0.95 12.5ZM1.95 12.5A0.45 0.45 0 0 1 1.5 12.95A0.45 0.45 0 0 1 1.05 12.5A0.45 0.45 0 0 1 1.5 12.05A0.45 0.45 0 0 1 1.95 12.5ZM3.95 12.5A0.45 0.45 0 0 1 3.5 12.95A0.45 0.45 0 0 1 3.05 12.5A0.45 0.45 0 0 1 3.5 12.05A0.45 0.45 0 0 1 3.95 12.5ZM6.95 12.5A0.45 0.45 0 0 1 6.5 12.95A0.45 0.45 0 0 1 6.05 12.5A0.45 0.45 0 0 1 6.5 12.05A0.45 0.45 0 0 1 6.95 12.5ZM7.95 12.5A0.45 0.45 0 0 1 7.5 12.95A0.45 0.45 0 0 1 7.05 12.5A0.45 0.45 0 0 1 7.5 12.05A0.45 0.45 0 0 1 7.95 12.5ZM11.95 12.5A0.45 0.45 0 0 1 11.5 12.95A0.45 0.45 0 0 1 11.05 12.5A0.45 0.45 0 0 1 11.5 12.05A0.45 0.45 0 0 1 11.95 12.5ZM12.95 12.5A0.45 0.45 0 0 1 12.5 12.95A0.45 0.45 0 0 1 12.05 12.5A0.45 0.45 0 0 1 12.5 12.05A0.45 0.45 0 0 1 12.95 12.5ZM16.95 12.5A0.45 0.45 0 0 1 16.5 12.95A0.45 0.45 0 0 1 16.05 12.5A0.45 0.45 0 0 1 16.5 12.05A0.45 0.45 0 0 1 16.95 12.5ZM17.95 12.5A0.45 0.45 0 0 1 17.5 12.95A0.45 0.45 0 0 1 17.05 12.5A0.45 0.45 0 0 1 17.5 12.05A0.45 0.45 0 0 1 17.95 12.5ZM18.95 12.5A0.45 0.45 0 0 1 18.5 12.95A0.45 0.45 0 0 1 18.05 12.5A0.45 0.45 0 0 1 18.5 12.05A0.45 0.45 0 0 1 18.95 12.5ZM19.95 12.5A0.45 0.45 0 0 1 19.5 12.95A0.45 0.45 0 0 1 19.05 12.5A0.45 0.45 0 0 1 19.5 12.05A0.45 0.45 0 0 1 19.95 12.5ZM22.95 12.5A0.45 0.45 0 0 1 22.5 12.95A0.45 0.45 0 0 1 22.05 12.5A0.45 0.45 0 0 1 22.5 12.05A0.45 0.45 0 0 1 22.95 12.5ZM23.95 12.5A0.45 0.45 0 0 1 23.5 12.95A0.45 0.45 0 0 1 23.05 12.5A0.45 0.45 0 0 1 23.5 12.05A0.45 0.45 0 0 1 23.95 12.5ZM24.95 12.5A0.45 0.45 0 0 1 24.5 12.95A0.45 0.45 0 0 1 24.05 12.5A0.45 0.45 0 0 1 24.5 12.05A0.45 0.45 0 0 1 24.95 12.5ZM1.95 13.5A0.45 0.45 0 0 1 1.5 13.95A0.45 0.45 0 0 1 1.05 13.5A0.45 0.45 0 0 1 1.5 13.05A0.45 0.45 0 0 1 1.95 13.5ZM2.95 13.5A0.45 0.45 0 0 1 2.5 13.95A0.45 0.45 0 0 1 2.05 13.5A0.45 0.45 0 0 1 2.5 13.05A0.45 0.45 0 0 1 2.95 13.5ZM5.95 13.5A0.45 0.45 0 0 1 5.5 13.95A0.45 0.45 0 0 1 5.05 13.5A0.45 0.45 0 0 1 5.5 13.05A0.45 0.45 0 0 1 5.95 13.5ZM7.95 13.5A0.45 0.45 0 0 1 7.5 13.95A0.45 0.45 0 0 1 7.05 13.5A0.45 0.45 0 0 1 7.5 13.05A0.45 0.45 0 0 1 7.95 13.5ZM10.95 13.5A0.45 0.45 0 0 1 10.5 13.95A0.45 0.45 0 0 1 10.05 13.5A0.45 0.45 0 0 1 10.5 13.05A0.45 0.45 0 0 1 10.95 13.5ZM11.95 13.5A0.45 0.45 0 0 1 11.5 13.95A0.45 0.45 0 0 1 11.05 13.5A0.45 0.45 0 0 1 11.5 13.05A0.45 0.45 0 0 1 11.95 13.5ZM13.95 13.5A0.45 0.45 0 0 1 13.5 13.95A0.45 0.45 0 0 1 13.05 13.5A0.45 0.45 0 0 1 13.5 13.05A0.45 0.45 0 0 1 13.95 13.5ZM14.95 13.5A0.45 0.45 0 0 1 14.5 13.95A0.45 0.45 0 0 1 14.05 13.5A0.45 0.45 0 0 1 14.5 13.05A0.45 0.45 0 0 1 14.95 13.5ZM16.95 13.5A0.45 0.45 0 0 1 16.5 13.95A0.45 0.45 0 0 1 16.05 13.5A0.45 0.45 0 0 1 16.5 13.05A0.45 0.45 0 0 1 16.95 13.5ZM17.95 13.5A0.45 0.45 0 0 1 17.5 13.95A0.45 0.45 0 0 1 17.05 13.5A0.45 0.45 0 0 1 17.5 13.05A0.45 0.45 0 0 1 17.95 13.5ZM18.95 13.5A0.45 0.45 0 0 1 18.5 13.95A0.45 0.45 0 0 1 18.05 13.5A0.45 0.45 0 0 1 18.5 13.05A0.45 0.45 0 0 1 18.95 13.5ZM20.95 13.5A0.45 0.45 0 0 1 20.5 13.95A0.45 0.45 0 0 1 20.05 13.5A0.45 0.45 0 0 1 20.5 13.05A0.45 0.45 0 0 1 20.95 13.5ZM23.95 13.5A0.45 0.45 0 0 1 23.5 13.95A0.45 0.45 0 0 1 23.05 13.5A0.45 0.45 0 0 1 23.5 13.05A0.45 0.45 0 0 1 23.95 13.5ZM0.95 14.5A0.45 0.45 0 0 1 0.5 14.95A0.45 0.45 0 0 1 0.05 14.5A0.45 0.45 0 0 1 0.5 14.05A0.45 0.45 0 0 1 0.95 14.5ZM3.95 14.5A0.45 0.45 0 0 1 3.5 14.95A0.45 0.45 0 0 1 3.05 14.5A0.45 0.45 0 0 1 3.5 14.05A0.45 0.45 0 0 1 3.95 14.5ZM4.95 14.5A0.45 0.45 0 0 1 4.5 14.95A0.45 0.45 0 0 1 4.05 14.5A0.45 0.45 0 0 1 4.5 14.05A0.45 0.45 0 0 1 4.95 14.5ZM6.95 14.5A0.45 0.45 0 0 1 6.5 14.95A0.45 0.45 0 0 1 6.05 14.5A0.45 0.45 0 0 1 6.5 14.05A0.45 0.45 0 0 1 6.95 14.5ZM7.95 14.5A0.45 0.45 0 0 1 7.5 14.95A0.45 0.45 0 0 1 7.05 14.5A0.45 0.45 0 0 1 7.5 14.05A0.45 0.45 0 0 1 7.95 14.5ZM8.95 14.5A0.45 0.45 0 0 1 8.5 14.95A0.45 0.45 0 0 1 8.05 14.5A0.45 0.45 0 0 1 8.5 14.05A0.45 0.45 0 0 1 8.95 14.5ZM12.95 14.5A0.45 0.45 0 0 1 12.5 14.95A0.45 0.45 0 0 1 12.05 14.5A0.45 0.45 0 0 1 12.5 14.05A0.45 0.45 0 0 1 12.95 14.5ZM13.95 14.5A0.45 0.45 0 0 1 13.5 14.95A0.45 0.45 0 0 1 13.05 14.5A0.45 0.45 0 0 1 13.5 14.05A0.45 0.45 0 0 1 13.95 14.5ZM15.95 14.5A0.45 0.45 0 0 1 15.5 14.95A0.45 0.45 0 0 1 15.05 14.5A0.45 0.45 0 0 1 15.5 14.05A0.45 0.45 0 0 1 15.95 14.5ZM16.95 14.5A0.45 0.45 0 0 1 16.5 14.95A0.45 0.45 0 0 1 16.05 14.5A0.45 0.45 0 0 1 16.5 14.05A0.45 0.45 0 0 1 16.95 14.5ZM17.95 14.5A0.45 0.45 0 0 1 17.5 14.95A0.45 0.45 0 0 1 17.05 14.5A0.45 0.45 0 0 1 17.5 14.05A0.45 0.45 0 0 1 17.95 14.5ZM18.95 14.5A0.45 0.45 0 0 1 18.5 14.95A0.45 0.45 0 0 1 18.05 14.5A0.45 0.45 0 0 1 18.5 14.05A0.45 0.45 0 0 1 18.95 14.5ZM21.95 14.5A0.45 0.45 0 0 1 21.5 14.95A0.45 0.45 0 0 1 21.05 14.5A0.45 0.45 0 0 1 21.5 14.05A0.45 0.45 0 0 1 21.95 14.5ZM1.95 15.5A0.45 0.45 0 0 1 1.5 15.95A0.45 0.45 0 0 1 1.05 15.5A0.45 0.45 0 0 1 1.5 15.05A0.45 0.45 0 0 1 1.95 15.5ZM2.95 15.5A0.45 0.45 0 0 1 2.5 15.95A0.45 0.45 0 0 1 2.05 15.5A0.45 0.45 0 0 1 2.5 15.05A0.45 0.45 0 0 1 2.95 15.5ZM5.95 15.5A0.45 0.45 0 0 1 5.5 15.95A0.45 0.45 0 0 1 5.05 15.5A0.45 0.45 0 0 1 5.5 15.05A0.45 0.45 0 0 1 5.95 15.5ZM7.95 15.5A0.45 0.45 0 0 1 7.5 15.95A0.45 0.45 0 0 1 7.05 15.5A0.45 0.45 0 0 1 7.5 15.05A0.45 0.45 0 0 1 7.95 15.5ZM10.95 15.5A0.45 0.45 0 0 1 10.5 15.95A0.45 0.45 0 0 1 10.05 15.5A0.45 0.45 0 0 1 10.5 15.05A0.45 0.45 0 0 1 10.95 15.5ZM11.95 15.5A0.45 0.45 0 0 1 11.5 15.95A0.45 0.45 0 0 1 11.05 15.5A0.45 0.45 0 0 1 11.5 15.05A0.45 0.45 0 0 1 11.95 15.5ZM13.95 15.5A0.45 0.45 0 0 1 13.5 15.95A0.45 0.45 0 0 1 13.05 15.5A0.45 0.45 0 0 1 13.5 15.05A0.45 0.45 0 0 1 13.95 15.5ZM17.95 15.5A0.45 0.45 0 0 1 17.5 15.95A0.45 0.45 0 0 1 17.05 15.5A0.45 0.45 0 0 1 17.5 15.05A0.45 0.45 0 0 1 17.95 15.5ZM18.95 15.5A0.45 0.45 0 0 1 18.5 15.95A0.45 0.45 0 0 1 18.05 15.5A0.45 0.45 0 0 1 18.5 15.05A0.45 0.45 0 0 1 18.95 15.5ZM19.95 15.5A0.45 0.45 0 0 1 19.5 15.95A0.45 0.45 0 0 1 19.05 15.5A0.45 0.45 0 0 1 19.5 15.05A0.45 0.45 0 0 1 19.95 15.5ZM0.95 16.5A0.45 0.45 0 0 1 0.5 16.95A0.45 0.45 0 0 1 0.05 16.5A0.45 0.45 0 0 1 0.5 16.05A0.45 0.45 0 0 1 0.95 16.5ZM3.95 16.5A0.45 0.45 0 0 1 3.5 16.95A0.45 0.45 0 0 1 3.05 16.5A0.45 0.45 0 0 1 3.5 16.05A0.45 0.45 0 0 1 3.95 16.5ZM6.95 16.5A0.45 0.45 0 0 1 6.5 16.95A0.45 0.45 0 0 1 6.05 16.5A0.45 0.45 0 0 1 6.5 16.05A0.45 0.45 0 0 1 6.95 16.5ZM10.95 16.5A0.45 0.45 0 0 1 10.5 16.95A0.45 0.45 0 0 1 10.05 16.5A0.45 0.45 0 0 1 10.5 16.05A0.45 0.45 0 0 1 10.95 16.5ZM13.95 16.5A0.45 0.45 0 0 1 13.5 16.95A0.45 0.45 0 0 1 13.05 16.5A0.45 0.45 0 0 1 13.5 16.05A0.45 0.45 0 0 1 13.95 16.5ZM16.95 16.5A0.45 0.45 0 0 1 16.5 16.95A0.45 0.45 0 0 1 16.05 16.5A0.45 0.45 0 0 1 16.5 16.05A0.45 0.45 0 0 1 16.95 16.5ZM17.95 16.5A0.45 0.45 0 0 1 17.5 16.95A0.45 0.45 0 0 1 17.05 16.5A0.45 0.45 0 0 1 17.5 16.05A0.45 0.45 0 0 1 17.95 16.5ZM18.95 16.5A0.45 0.45 0 0 1 18.5 16.95A0.45 0.45 0 0 1 18.05 16.5A0.45 0.45 0 0 1 18.5 16.05A0.45 0.45 0 0 1 18.95 16.5ZM19.95 16.5A0.45 0.45 0 0 1 19.5 16.95A0.45 0.45 0 0 1 19.05 16.5A0.45 0.45 0 0 1 19.5 16.05A0.45 0.45 0 0 1 19.95 16.5ZM20.95 16.5A0.45 0.45 0 0 1 20.5 16.95A0.45 0.45 0 0 1 20.05 16.5A0.45 0.45 0 0 1 20.5 16.05A0.45 0.45 0 0 1 20.95 16.5ZM22.95 16.5A0.45 0.45 0 0 1 22.5 16.95A0.45 0.45 0 0 1 22.05 16.5A0.45 0.45 0 0 1 22.5 16.05A0.45 0.45 0 0 1 22.95 16.5ZM24.95 16.5A0.45 0.45 0 0 1 24.5 16.95A0.45 0.45 0 0 1 24.05 16.5A0.45 0.45 0 0 1 24.5 16.05A0.45 0.45 0 0 1 24.95 16.5ZM8.95 17.5A0.45 0.45 0 0 1 8.5 17.95A0.45 0.45 0 0 1 8.05 17.5A0.45 0.45 0 0 1 8.5 17.05A0.45 0.45 0 0 1 8.95 17.5ZM11.95 17.5A0.45 0.45 0 0 1 11.5 17.95A0.45 0.45 0 0 1 11.05 17.5A0.45 0.45 0 0 1 11.5 17.05A0.45 0.45 0 0 1 11.95 17.5ZM12.95 17.5A0.45 0.45 0 0 1 12.5 17.95A0.45 0.45 0 0 1 12.05 17.5A0.45 0.45 0 0 1 12.5 17.05A0.45 0.45 0 0 1 12.95 17.5ZM13.95 17.5A0.45 0.45 0 0 1 13.5 17.95A0.45 0.45 0 0 1 13.05 17.5A0.45 0.45 0 0 1 13.5 17.05A0.45 0.45 0 0 1 13.95 17.5ZM14.95 17.5A0.45 0.45 0 0 1 14.5 17.95A0.45 0.45 0 0 1 14.05 17.5A0.45 0.45 0 0 1 14.5 17.05A0.45 0.45 0 0 1 14.95 17.5ZM16.95 17.5A0.45 0.45 0 0 1 16.5 17.95A0.45 0.45 0 0 1 16.05 17.5A0.45 0.45 0 0 1 16.5 17.05A0.45 0.45 0 0 1 16.95 17.5ZM20.95 17.5A0.45 0.45 0 0 1 20.5 17.95A0.45 0.45 0 0 1 20.05 17.5A0.45 0.45 0 0 1 20.5 17.05A0.45 0.45 0 0 1 20.95 17.5ZM23.95 17.5A0.45 0.45 0 0 1 23.5 17.95A0.45 0.45 0 0 1 23.05 17.5A0.45 0.45 0 0 1 23.5 17.05A0.45 0.45 0 0 1 23.95 17.5ZM13.95 18.5A0.45 0.45 0 0 1 13.5 18.95A0.45 0.45 0 0 1 13.05 18.5A0.45 0.45 0 0 1 13.5 18.05A0.45 0.45 0 0 1 13.95 18.5ZM14.95 18.5A0.45 0.45 0 0 1 14.5 18.95A0.45 0.45 0 0 1 14.05 18.5A0.45 0.45 0 0 1 14.5 18.05A0.45 0.45 0 0 1 14.95 18.5ZM15.95 18.5A0.45 0.45 0 0 1 15.5 18.95A0.45 0.45 0 0 1 15.05 18.5A0.45 0.45 0 0 1 15.5 18.05A0.45 0.45 0 0 1 15.95 18.5ZM16.95 18.5A0.45 0.45 0 0 1 16.5 18.95A0.45 0.45 0 0 1 16.05 18.5A0.45 0.45 0 0 1 16.5 18.05A0.45 0.45 0 0 1 16.95 18.5ZM18.95 18.5A0.45 0.45 0 0 1 18.5 18.95A0.45 0.45 0 0 1 18.05 18.5A0.45 0.45 0 0 1 18.5 18.05A0.45 0.45 0 0 1 18.95 18.5ZM20.95 18.5A0.45 0.45 0 0 1 20.5 18.95A0.45 0.45 0 0 1 20.05 18.5A0.45 0.45 0 0 1 20.5 18.05A0.45 0.45 0 0 1 20.95 18.5ZM21.95 18.5A0.45 0.45 0 0 1 21.5 18.95A0.45 0.45 0 0 1 21.05 18.5A0.45 0.45 0 0 1 21.5 18.05A0.45 0.45 0 0 1 21.95 18.5ZM23.95 18.5A0.45 0.45 0 0 1 23.5 18.95A0.45 0.45 0 0 1 23.05 18.5A0.45 0.45 0 0 1 23.5 18.05A0.45 0.45 0 0 1 23.95 18.5ZM24.95 18.5A0.45 0.45 0 0 1 24.5 18.95A0.45 0.45 0 0 1 24.05 18.5A0.45 0.45 0 0 1 24.5 18.05A0.45 0.45 0 0 1 24.95 18.5ZM10.95 19.5A0.45 0.45 0 0 1 10.5 19.95A0.45 0.45 0 0 1 10.05 19.5A0.45 0.45 0 0 1 10.5 19.05A0.45 0.45 0 0 1 10.95 19.5ZM14.95 19.5A0.45 0.45 0 0 1 14.5 19.95A0.45 0.45 0 0 1 14.05 19.5A0.45 0.45 0 0 1 14.5 19.05A0.45 0.45 0 0 1 14.95 19.5ZM16.95 19.5A0.45 0.45 0 0 1 16.5 19.95A0.45 0.45 0 0 1 16.05 19.5A0.45 0.45 0 0 1 16.5 19.05A0.45 0.45 0 0 1 16.95 19.5ZM20.95 19.5A0.45 0.45 0 0 1 20.5 19.95A0.45 0.45 0 0 1 20.05 19.5A0.45 0.45 0 0 1 20.5 19.05A0.45 0.45 0 0 1 20.95 19.5ZM21.95 19.5A0.45 0.45 0 0 1 21.5 19.95A0.45 0.45 0 0 1 21.05 19.5A0.45 0.45 0 0 1 21.5 19.05A0.45 0.45 0 0 1 21.95 19.5ZM23.95 19.5A0.45 0.45 0 0 1 23.5 19.95A0.45 0.45 0 0 1 23.05 19.5A0.45 0.45 0 0 1 23.5 19.05A0.45 0.45 0 0 1 23.95 19.5ZM24.95 19.5A0.45 0.45 0 0 1 24.5 19.95A0.45 0.45 0 0 1 24.05 19.5A0.45 0.45 0 0 1 24.5 19.05A0.45 0.45 0 0 1 24.95 19.5ZM8.95 20.5A0.45 0.45 0 0 1 8.5 20.95A0.45 0.45 0 0 1 8.05 20.5A0.45 0.45 0 0 1 8.5 20.05A0.45 0.45 0 0 1 8.95 20.5ZM14.95 20.5A0.45 0.45 0 0 1 14.5 20.95A0.45 0.45 0 0 1 14.05 20.5A0.45 0.45 0 0 1 14.5 20.05A0.45 0.45 0 0 1 14.95 20.5ZM16.95 20.5A0.45 0.45 0 0 1 16.5 20.95A0.45 0.45 0 0 1 16.05 20.5A0.45 0.45 0 0 1 16.5 20.05A0.45 0.45 0 0 1 16.95 20.5ZM17.95 20.5A0.45 0.45 0 0 1 17.5 20.95A0.45 0.45 0 0 1 17.05 20.5A0.45 0.45 0 0 1 17.5 20.05A0.45 0.45 0 0 1 17.95 20.5ZM18.95 20.5A0.45 0.45 0 0 1 18.5 20.95A0.45 0.45 0 0 1 18.05 20.5A0.45 0.45 0 0 1 18.5 20.05A0.45 0.45 0 0 1 18.95 20.5ZM19.95 20.5A0.45 0.45 0 0 1 19.5 20.95A0.45 0.45 0 0 1 19.05 20.5A0.45 0.45 0 0 1 19.5 20.05A0.45 0.45 0 0 1 19.95 20.5ZM20.95 20.5A0.45 0.45 0 0 1 20.5 20.95A0.45 0.45 0 0 1 20.05 20.5A0.45 0.45 0 0 1 20.5 20.05A0.45 0.45 0 0 1 20.95 20.5ZM22.95 20.5A0.45 0.45 0 0 1 22.5 20.95A0.45 0.45 0 0 1 22.05 20.5A0.45 0.45 0 0 1 22.5 20.05A0.45 0.45 0 0 1 22.95 20.5ZM10.95 21.5A0.45 0.45 0 0 1 10.5 21.95A0.45 0.45 0 0 1 10.05 21.5A0.45 0.45 0 0 1 10.5 21.05A0.45 0.45 0 0 1 10.95 21.5ZM12.95 21.5A0.45 0.45 0 0 1 12.5 21.95A0.45 0.45 0 0 1 12.05 21.5A0.45 0.45 0 0 1 12.5 21.05A0.45 0.45 0 0 1 12.95 21.5ZM13.95 21.5A0.45 0.45 0 0 1 13.5 21.95A0.45 0.45 0 0 1 13.05 21.5A0.45 0.45 0 0 1 13.5 21.05A0.45 0.45 0 0 1 13.95 21.5ZM16.95 21.5A0.45 0.45 0 0 1 16.5 21.95A0.45 0.45 0 0 1 16.05 21.5A0.45 0.45 0 0 1 16.5 21.05A0.45 0.45 0 0 1 16.95 21.5ZM17.95 21.5A0.45 0.45 0 0 1 17.5 21.95A0.45 0.45 0 0 1 17.05 21.5A0.45 0.45 0 0 1 17.5 21.05A0.45 0.45 0 0 1 17.95 21.5ZM18.95 21.5A0.45 0.45 0 0 1 18.5 21.95A0.45 0.45 0 0 1 18.05 21.5A0.45 0.45 0 0 1 18.5 21.05A0.45 0.45 0 0 1 18.95 21.5ZM19.95 21.5A0.45 0.45 0 0 1 19.5 21.95A0.45 0.45 0 0 1 19.05 21.5A0.45 0.45 0 0 1 19.5 21.05A0.45 0.45 0 0 1 19.95 21.5ZM20.95 21.5A0.45 0.45 0 0 1 20.5 21.95A0.45 0.45 0 0 1 20.05 21.5A0.45 0.45 0 0 1 20.5 21.05A0.45 0.45 0 0 1 20.95 21.5ZM8.95 22.5A0.45 0.45 0 0 1 8.5 22.95A0.45 0.45 0 0 1 8.05 22.5A0.45 0.45 0 0 1 8.5 22.05A0.45 0.45 0 0 1 8.95 22.5ZM10.95 22.5A0.45 0.45 0 0 1 10.5 22.95A0.45 0.45 0 0 1 10.05 22.5A0.45 0.45 0 0 1 10.5 22.05A0.45 0.45 0 0 1 10.95 22.5ZM15.95 22.5A0.45 0.45 0 0 1 15.5 22.95A0.45 0.45 0 0 1 15.05 22.5A0.45 0.45 0 0 1 15.5 22.05A0.45 0.45 0 0 1 15.95 22.5ZM16.95 22.5A0.45 0.45 0 0 1 16.5 22.95A0.45 0.45 0 0 1 16.05 22.5A0.45 0.45 0 0 1 16.5 22.05A0.45 0.45 0 0 1 16.95 22.5ZM17.95 22.5A0.45 0.45 0 0 1 17.5 22.95A0.45 0.45 0 0 1 17.05 22.5A0.45 0.45 0 0 1 17.5 22.05A0.45 0.45 0 0 1 17.95 22.5ZM18.95 22.5A0.45 0.45 0 0 1 18.5 22.95A0.45 0.45 0 0 1 18.05 22.5A0.45 0.45 0 0 1 18.5 22.05A0.45 0.45 0 0 1 18.95 22.5ZM21.95 22.5A0.45 0.45 0 0 1 21.5 22.95A0.45 0.45 0 0 1 21.05 22.5A0.45 0.45 0 0 1 21.5 22.05A0.45 0.45 0 0 1 21.95 22.5ZM24.95 22.5A0.45 0.45 0 0 1 24.5 22.95A0.45 0.45 0 0 1 24.05 22.5A0.45 0.45 0 0 1 24.5 22.05A0.45 0.45 0 0 1 24.95 22.5ZM9.95 23.5A0.45 0.45 0 0 1 9.5 23.95A0.45 0.45 0 0 1 9.05 23.5A0.45 0.45 0 0 1 9.5 23.05A0.45 0.45 0 0 1 9.95 23.5ZM11.95 23.5A0.45 0.45 0 0 1 11.5 23.95A0.45 0.45 0 0 1 11.05 23.5A0.45 0.45 0 0 1 11.5 23.05A0.45 0.45 0 0 1 11.95 23.5ZM12.95 23.5A0.45 0.45 0 0 1 12.5 23.95A0.45 0.45 0 0 1 12.05 23.5A0.45 0.45 0 0 1 12.5 23.05A0.45 0.45 0 0 1 12.95 23.5ZM13.95 23.5A0.45 0.45 0 0 1 13.5 23.95A0.45 0.45 0 0 1 13.05 23.5A0.45 0.45 0 0 1 13.5 23.05A0.45 0.45 0 0 1 13.95 23.5ZM20.95 23.5A0.45 0.45 0 0 1 20.5 23.95A0.45 0.45 0 0 1 20.05 23.5A0.45 0.45 0 0 1 20.5 23.05A0.45 0.45 0 0 1 20.95 23.5ZM21.95 23.5A0.45 0.45 0 0 1 21.5 23.95A0.45 0.45 0 0 1 21.05 23.5A0.45 0.45 0 0 1 21.5 23.05A0.45 0.45 0 0 1 21.95 23.5ZM24.95 23.5A0.45 0.45 0 0 1 24.5 23.95A0.45 0.45 0 0 1 24.05 23.5A0.45 0.45 0 0 1 24.5 23.05A0.45 0.45 0 0 1 24.95 23.5ZM8.95 24.5A0.45 0.45 0 0 1 8.5 24.95A0.45 0.45 0 0 1 8.05 24.5A0.45 0.45 0 0 1 8.5 24.05A0.45 0.45 0 0 1 8.95 24.5ZM10.95 24.5A0.45 0.45 0 0 1 10.5 24.95A0.45 0.45 0 0 1 10.05 24.5A0.45 0.45 0 0 1 10.5 24.05A0.45 0.45 0 0 1 10.95 24.5ZM12.95 24.5A0.45 0.45 0 0 1 12.5 24.95A0.45 0.45 0 0 1 12.05 24.5A0.45 0.45 0 0 1 12.5 24.05A0.45 0.45 0 0 1 12.95 24.5ZM13.95 24.5A0.45 0.45 0 0 1 13.5 24.95A0.45 0.45 0 0 1 13.05 24.5A0.45 0.45 0 0 1 13.5 24.05A0.45 0.45 0 0 1 13.95 24.5ZM15.95 24.5A0.45 0.45 0 0 1 15.5 24.95A0.45 0.45 0 0 1 15.05 24.5A0.45 0.45 0 0 1 15.5 24.05A0.45 0.45 0 0 1 15.95 24.5ZM16.95 24.5A0.45 0.45 0 0 1 16.5 24.95A0.45 0.45 0 0 1 16.05 24.5A0.45 0.45 0 0 1 16.5 24.05A0.45 0.45 0 0 1 16.95 24.5ZM20.95 24.5A0.45 0.45 0 0 1 20.5 24.95A0.45 0.45 0 0 1 20.05 24.5A0.45 0.45 0 0 1 20.5 24.05A0.45 0.45 0 0 1 20.95 24.5ZM21.95 24.5A0.45 0.45 0 0 1 21.5 24.95A0.45 0.45 0 0 1 21.05 24.5A0.45 0.45 0 0 1 21.5 24.05A0.45 0.45 0 0 1 21.95 24.5ZM23.95 24.5A0.45 0.45 0 0 1 23.5 24.95A0.45 0.45 0 0 1 23.05 24.5A0.45 0.45 0 0 1 23.5 24.05A0.45 0.45 0 0 1 23.95 24.5ZM24.95 24.5A0.45 0.45 0 0 1 24.5 24.95A0.45 0.45 0 0 1 24.05 24.5A0.45 0.45 0 0 1 24.5 24.05A0.45 0.45 0 0 1 24.95 24.5Z" fill="#000000"/></g></g></svg>
